<svg
  width="100"
  height="100"
  viewBox="0 0 100 100"
  fill=	"#ff5b14"
  xmlns="http://www.w3.org/2000/svg"
>
  <g transform="translate(50,50)">
    <rect x="-6" y="-40" rx="3" ry="3" width="12" height="30" transform="rotate(0)"/>
    <rect x="-6" y="-40" rx="3" ry="3" width="12" height="30" transform="rotate(45)"/>
    <rect x="-6" y="-40" rx="3" ry="3" width="12" height="30" transform="rotate(90)"/>
    <rect x="-6" y="-40" rx="3" ry="3" width="12" height="30" transform="rotate(135)"/>
    <rect x="-6" y="-40" rx="3" ry="3" width="12" height="30" transform="rotate(180)"/>
    <rect x="-6" y="-40" rx="3" ry="3" width="12" height="30" transform="rotate(225)"/>
    <rect x="-6" y="-40" rx="3" ry="3" width="12" height="30" transform="rotate(270)"/>
    <rect x="-6" y="-40" rx="3" ry="3" width="12" height="30" transform="rotate(315)"/>
  </g>
</svg>